<?xml version="1.0" encoding="UTF-8"?>
<svg id="Layer_1" xmlns="http://www.w3.org/2000/svg" version="1.1" viewBox="0 0 432 354.22">
  <!-- Generator: Adobe Illustrator 29.8.1, SVG Export Plug-In . SVG Version: 2.1.1 Build 2)  -->
  <defs>
    <style>
      .st0 {
        fill: #11101a;
      }

      .st1 {
        fill: #231f20;
      }
    </style>
  </defs>
  <path class="st1" d="M8.43,268.01v-4.11h7.16v8.42c-1.37,1.23-2.58,2.06-3.63,2.5s-2.3.67-3.75.67c-1.78,0-3.23-.4-4.36-1.2-1.12-.79-1.99-1.98-2.6-3.57-.62-1.58-.93-3.39-.93-5.43,0-2.16.34-4.03,1.02-5.62.67-1.6,1.66-2.8,2.97-3.62,1.02-.64,2.38-.96,4.1-.96s2.9.2,3.72.59c.82.4,1.51,1,2.05,1.84.54.83.95,1.89,1.22,3.16l-4.47,1.04c-.18-.74-.49-1.31-.93-1.7-.45-.4-1-.6-1.69-.6-1.01,0-1.83.46-2.42,1.39-.6.93-.91,2.41-.91,4.42,0,2.13.31,3.65.92,4.57s1.46,1.37,2.55,1.37c.52,0,1.02-.1,1.49-.29.46-.2,1.01-.54,1.61-1.01v-1.86h-3.12ZM17.77,265.31c0-3.22.68-5.73,2.04-7.53,1.37-1.79,3.27-2.69,5.7-2.69s4.42.88,5.77,2.64c1.35,1.77,2.03,4.23,2.03,7.41,0,2.31-.3,4.2-.89,5.67-.59,1.48-1.44,2.63-2.55,3.45-1.12.82-2.51,1.23-4.18,1.23s-3.09-.35-4.19-1.06c-1.11-.71-2.01-1.83-2.7-3.37s-1.03-3.45-1.03-5.76M22.39,265.34c0,1.99.28,3.42.85,4.29.56.87,1.33,1.3,2.29,1.3s1.77-.42,2.32-1.27c.54-.85.81-2.39.81-4.59,0-1.85-.28-3.22-.85-4.08-.57-.85-1.35-1.29-2.32-1.29s-1.68.45-2.25,1.31c-.56.87-.85,2.31-.85,4.32M35.8,255.43h4.64v14.87h7.23v4.85h-11.87v-19.72ZM49.84,255.43h6.88c1.36,0,2.46.24,3.29.73.84.48,1.53,1.18,2.08,2.09.54.9.93,1.96,1.19,3.16.24,1.2.37,2.47.37,3.83,0,2.11-.18,3.74-.55,4.9-.37,1.17-.87,2.13-1.52,2.92s-1.34,1.31-2.09,1.58c-1.01.36-1.93.53-2.76.53h-6.88v-19.74ZM54.47,259.9v10.78h1.14c.97,0,1.65-.14,2.07-.42.41-.28.73-.78.96-1.48.23-.71.35-1.85.35-3.43,0-2.09-.26-3.52-.77-4.29-.52-.77-1.38-1.16-2.58-1.16h-1.17ZM66.07,255.43h12.42v4.21h-7.77v3.13h7.21v4.03h-7.21v3.88h8v4.47h-12.65v-19.72ZM81.24,255.43h4.33l5.64,10.91v-10.91h4.37v19.72h-4.37l-5.61-10.83v10.83h-4.36v-19.72ZM104.83,268.63l4.41-.37c.1.95.29,1.66.59,2.16.47.8,1.16,1.2,2.04,1.2.67,0,1.18-.2,1.54-.61.36-.41.53-.88.53-1.42,0-.51-.17-.97-.51-1.37-.34-.41-1.13-.78-2.37-1.15-2.04-.6-3.49-1.39-4.35-2.4-.88-.99-1.31-2.26-1.31-3.81,0-1.02.22-1.97.68-2.87.44-.9,1.11-1.61,2.01-2.13.9-.52,2.13-.78,3.69-.78,1.91,0,3.37.46,4.38,1.4,1,.94,1.6,2.44,1.8,4.47l-4.37.34c-.12-.89-.36-1.54-.74-1.93-.37-.41-.88-.61-1.54-.61-.54,0-.95.16-1.22.45s-.41.67-.41,1.09c0,.32.11.6.34.85.22.26.74.5,1.56.73,2.02.58,3.47,1.16,4.35,1.75.88.58,1.52,1.31,1.92,2.18s.6,1.85.6,2.92c0,1.27-.27,2.44-.8,3.5-.53,1.07-1.28,1.88-2.22,2.43-.96.55-2.17.82-3.61.82-2.55,0-4.32-.65-5.3-1.93-.98-1.3-1.55-2.94-1.67-4.93M120.79,255.43h4.64v6.9h5.07v-6.9h4.65v19.72h-4.65v-7.97h-5.07v7.97h-4.64v-19.72ZM138.41,255.43h4.65v19.73h-4.65v-19.73h0ZM146.36,255.43h12.43v4.21h-7.78v3.13h7.21v4.03h-7.21v3.88h8v4.47h-12.65v-19.72h0ZM161.51,255.43h4.63v14.87h7.24v4.85h-11.87v-19.72h0ZM175.54,255.43h6.89c1.35,0,2.45.24,3.28.73.84.48,1.53,1.18,2.08,2.09.54.9.94,1.96,1.18,3.16.25,1.2.38,2.47.38,3.83,0,2.11-.18,3.74-.55,4.9-.37,1.17-.87,2.13-1.52,2.92-.65.79-1.34,1.31-2.09,1.58-1.01.36-1.94.53-2.76.53h-6.89v-19.74ZM180.18,259.9v10.78h1.14c.97,0,1.65-.14,2.06-.42.42-.28.74-.78.97-1.48.23-.71.35-1.85.35-3.43,0-2.09-.26-3.52-.78-4.29-.51-.77-1.37-1.16-2.57-1.16h-1.17Z"/>
  <path class="st0" d="M6.85,348.74l2.65,1.05c-.17.98-.45,1.79-.84,2.45-.38.66-.85,1.15-1.42,1.48-.56.34-1.28.5-2.17.5-1.05,0-1.92-.2-2.6-.61-.67-.41-1.25-1.12-1.74-2.14-.49-1.03-.74-2.33-.74-3.92,0-2.13.44-3.76,1.3-4.9.85-1.14,2.07-1.71,3.64-1.71,1.23,0,2.19.33,2.9.99.7.65,1.23,1.65,1.56,3.01l-2.66.77c-.1-.39-.19-.68-.3-.86-.17-.3-.37-.53-.62-.69-.24-.17-.51-.25-.81-.25-.69,0-1.21.37-1.58,1.09-.28.53-.41,1.38-.41,2.53,0,1.42.17,2.4.49,2.92.33.53.79.79,1.39.79s1-.21,1.31-.64c.3-.43.51-1.04.64-1.86M11.27,347.58c0-2.1.44-3.73,1.33-4.9.89-1.17,2.13-1.75,3.71-1.75s2.88.57,3.76,1.72,1.31,2.75,1.31,4.82c0,1.51-.19,2.74-.57,3.7-.39.96-.94,1.7-1.67,2.24-.73.53-1.62.8-2.71.8s-2.02-.23-2.74-.69c-.72-.46-1.31-1.19-1.76-2.19-.45-1-.68-2.24-.68-3.75M14.29,347.6c0,1.3.18,2.23.54,2.79.37.57.87.85,1.5.85s1.15-.27,1.51-.83c.36-.55.53-1.55.53-2.99,0-1.21-.18-2.1-.55-2.65-.38-.56-.88-.84-1.52-.84s-1.09.28-1.46.85-.55,1.51-.55,2.81M23.72,341.15h2.82l3.67,7.1v-7.1h2.85v12.84h-2.85l-3.66-7.05v7.05h-2.84v-12.84h.01ZM35.06,341.15h9.17v3.17h-3.08v9.67h-3.02v-9.67h-3.07v-3.17ZM46.32,354v-12.84h5.03c.93,0,1.64.11,2.14.31.49.21.89.6,1.2,1.17.3.57.45,1.27.45,2.09,0,.71-.12,1.32-.34,1.84-.23.51-.55.94-.96,1.26-.26.2-.61.37-1.06.5.36.16.63.32.79.47.11.11.27.34.48.68.2.35.35.62.42.8l1.46,3.72h-3.4l-1.61-3.92c-.2-.51-.39-.84-.55-.99-.22-.19-.46-.29-.74-.29h-.27v5.21h-3.04ZM49.35,346.35h1.27c.14,0,.41-.06.8-.17.19-.05.36-.18.48-.41.12-.21.19-.46.19-.74,0-.41-.11-.72-.3-.95-.2-.22-.58-.34-1.13-.34h-1.32v2.61h.01ZM63.57,351.88h-3.42l-.48,2.12h-3.08l3.67-12.84h3.28l3.67,12.84h-3.16l-.5-2.12h.02ZM62.96,349.1l-1.08-4.62-1.06,4.62h2.14ZM75.12,348.74l2.65,1.05c-.18.98-.46,1.79-.84,2.45-.39.66-.86,1.15-1.42,1.48-.57.34-1.29.5-2.17.5-1.06,0-1.92-.2-2.6-.61-.68-.41-1.26-1.12-1.74-2.14-.49-1.03-.73-2.33-.73-3.92,0-2.13.42-3.76,1.28-4.9s2.08-1.71,3.66-1.71c1.23,0,2.19.33,2.9.99.7.65,1.23,1.65,1.57,3.01l-2.67.77c-.09-.39-.18-.68-.29-.86-.16-.3-.38-.53-.62-.69-.24-.17-.52-.25-.82-.25-.69,0-1.21.37-1.58,1.09-.27.53-.41,1.38-.41,2.53,0,1.42.17,2.4.5,2.92.33.53.79.79,1.38.79s1.02-.21,1.31-.64c.29-.43.5-1.04.64-1.86M79.23,341.15h9.17v3.17h-3.08v9.67h-3.02v-9.67h-3.08v-3.17h.01ZM90.57,341.15h3.03v12.84h-3.03v-12.84ZM96.46,341.15h2.81l3.68,7.1v-7.1h2.84v12.84h-2.84l-3.66-7.05v7.05h-2.83s0-12.84,0-12.84ZM113.39,349.35v-2.68h4.67v5.48c-.9.8-1.68,1.34-2.37,1.63s-1.5.44-2.44.44c-1.16,0-2.11-.26-2.83-.78-.74-.52-1.3-1.3-1.7-2.32-.41-1.03-.6-2.21-.6-3.55s.21-2.62.66-3.65c.43-1.04,1.08-1.83,1.93-2.37.66-.42,1.55-.62,2.67-.62s1.89.13,2.43.39c.53.26.98.66,1.33,1.2s.62,1.22.79,2.05l-2.91.68c-.12-.48-.33-.85-.61-1.11-.29-.26-.66-.39-1.1-.39-.66,0-1.19.3-1.58.91-.4.6-.59,1.56-.59,2.87,0,1.39.19,2.39.59,2.98.4.6.96.9,1.66.9.34,0,.66-.07.97-.19.31-.13.66-.35,1.05-.66v-1.21h-2.02ZM131.77,351.88h-3.43l-.47,2.12h-3.08l3.67-12.84h3.29l3.67,12.84h-3.16l-.48-2.12h0ZM131.14,349.1l-1.08-4.62-1.06,4.62h2.14ZM137.07,341.15h2.82l3.67,7.1v-7.1h2.85v12.84h-2.85l-3.65-7.05v7.05h-2.84v-12.84h0ZM149.14,341.15h4.48c.88,0,1.59.16,2.13.47.55.31,1,.76,1.35,1.36.36.59.61,1.27.78,2.06.15.78.24,1.61.24,2.49,0,1.37-.12,2.44-.36,3.19-.24.76-.57,1.39-.99,1.9-.41.51-.87.85-1.35,1.03-.67.23-1.27.35-1.8.35h-4.48v-12.84h0ZM152.16,344.06v7.02h.74c.63,0,1.08-.09,1.34-.27s.47-.51.63-.97c.14-.46.22-1.21.22-2.23,0-1.36-.16-2.29-.5-2.79s-.9-.75-1.68-.75h-.75ZM165.66,354v-12.84h5.03c.93,0,1.65.11,2.14.31.49.21.89.6,1.19,1.17.31.57.45,1.27.45,2.09,0,.71-.12,1.32-.35,1.84-.22.51-.54.94-.94,1.26-.26.2-.61.37-1.07.5.36.16.62.32.78.47.12.11.28.34.49.68.21.35.36.62.42.8l1.46,3.72h-3.4l-1.61-3.92c-.22-.51-.39-.84-.55-.99-.21-.19-.46-.29-.74-.29h-.27v5.21h-3.03,0ZM168.69,346.35h1.28c.13,0,.4-.06.79-.17.2-.05.37-.18.49-.41.12-.21.19-.46.19-.74,0-.41-.11-.72-.3-.95-.2-.22-.58-.34-1.13-.34h-1.32v2.61h0ZM176.91,341.15h8.09v2.75h-5.06v2.04h4.7v2.62h-4.7v2.53h5.21v2.91h-8.24v-12.84h0ZM193.45,351.88h-3.42l-.48,2.12h-3.08l3.66-12.84h3.3l3.67,12.84h-3.16l-.5-2.12h0ZM192.83,349.1l-1.07-4.62-1.08,4.62h2.15ZM198.75,341.15h3.02v9.68h4.71v3.16h-7.72v-12.84h-.01ZM213.75,341.15h8.09v2.75h-5.06v2.04h4.7v2.62h-4.7v2.53h5.21v2.91h-8.23v-12.84h-.01ZM223.76,349.75l2.87-.23c.06.61.19,1.08.38,1.4.31.52.75.78,1.33.78.44,0,.76-.13,1-.41.23-.26.35-.57.35-.92s-.11-.64-.33-.9-.74-.51-1.55-.74c-1.32-.39-2.27-.91-2.83-1.55-.57-.65-.85-1.48-.85-2.48,0-.66.15-1.29.43-1.88.29-.58.73-1.04,1.31-1.38s1.38-.5,2.4-.5c1.25,0,2.2.31,2.86.92.65.61,1.04,1.57,1.17,2.91l-2.85.22c-.08-.58-.23-1-.47-1.27-.24-.26-.58-.39-1-.39-.35,0-.61.1-.79.29-.17.19-.26.44-.26.72,0,.2.07.39.22.55.14.17.48.33,1.01.47,1.32.38,2.26.75,2.83,1.13.58.39.99.86,1.25,1.43.26.56.4,1.2.4,1.9,0,.82-.17,1.57-.52,2.27-.35.69-.83,1.23-1.45,1.58-.63.36-1.41.54-2.36.54-1.66,0-2.81-.42-3.45-1.27-.64-.84-.99-1.92-1.08-3.21M234.13,341.15h9.17v3.17h-3.08v9.67h-3.02v-9.67h-3.08v-3.17h.01ZM250.44,351.88h-3.43l-.47,2.12h-3.08l3.67-12.84h3.28l3.67,12.84h-3.16l-.48-2.12ZM249.81,349.1l-1.08-4.62-1.06,4.62h2.15,0ZM254.1,341.15h9.17v3.17h-3.07v9.67h-3.03v-9.67h-3.07v-3.17ZM265.31,341.15h8.09v2.75h-5.06v2.04h4.7v2.62h-4.7v2.53h5.21v2.91h-8.23v-12.84h0ZM281.04,341.15h3.96l1.54,7.82,1.52-7.82h3.96v12.84h-2.46v-9.8l-1.91,9.8h-2.24l-1.9-9.8v9.8h-2.46v-12.84h-.01ZM300.64,351.88h-3.43l-.47,2.12h-3.08l3.67-12.84h3.29l3.67,12.84h-3.16l-.48-2.12h-.01ZM300.02,349.1l-1.08-4.62-1.06,4.62h2.15-.01ZM305.95,341.15h2.82l3.67,7.1v-7.1h2.85v12.84h-2.85l-3.65-7.05v7.05h-2.84v-12.84h0ZM323.85,351.88h-3.42l-.48,2.12h-3.07l3.66-12.84h3.3l3.67,12.84h-3.16l-.49-2.12h0ZM323.22,349.1l-1.07-4.62-1.07,4.62h2.14ZM333.8,349.35v-2.68h4.67v5.48c-.9.8-1.68,1.34-2.37,1.63s-1.51.44-2.45.44c-1.16,0-2.11-.26-2.83-.78-.73-.52-1.29-1.3-1.7-2.32-.41-1.03-.6-2.21-.6-3.55s.21-2.62.66-3.65c.44-1.04,1.08-1.83,1.93-2.37.66-.42,1.55-.62,2.67-.62s1.88.13,2.42.39c.53.26.98.66,1.33,1.2.35.54.61,1.22.79,2.05l-2.91.68c-.12-.48-.33-.85-.61-1.11-.29-.26-.66-.39-1.1-.39-.66,0-1.19.3-1.59.91-.39.6-.59,1.56-.59,2.87,0,1.39.2,2.39.6,2.98.4.6.96.9,1.66.9.34,0,.66-.07.97-.19.31-.13.65-.35,1.05-.66v-1.21h-2.02.02ZM340.9,341.15h3.97l1.53,7.82,1.52-7.82h3.97v12.84h-2.47v-9.8l-1.9,9.8h-2.23l-1.91-9.8v9.8h-2.47v-12.84h0ZM354.49,341.15h8.09v2.75h-5.06v2.04h4.7v2.62h-4.7v2.53h5.21v2.91h-8.24v-12.84h0ZM365.05,341.15h2.81l3.68,7.1v-7.1h2.84v12.84h-2.84l-3.66-7.05v7.05h-2.83v-12.84ZM376.39,341.15h9.17v3.17h-3.08v9.67h-3.01v-9.67h-3.08v-3.17h0ZM392.84,341.15h3.02v9.68h4.71v3.16h-7.72v-12.84h0ZM402.45,350.42h2.9v3.57h-2.9v-3.57ZM407.84,341.15h3.02v9.68h4.71v3.16h-7.73v-12.84h0ZM417.46,350.42h2.9v3.57h-2.9v-3.57ZM429.35,348.74l2.65,1.05c-.18.98-.46,1.79-.84,2.45-.39.66-.86,1.15-1.42,1.48-.57.34-1.3.5-2.17.5-1.06,0-1.93-.2-2.6-.61-.68-.41-1.26-1.12-1.74-2.14-.5-1.03-.74-2.33-.74-3.92,0-2.13.42-3.76,1.28-4.9s2.08-1.71,3.65-1.71c1.24,0,2.2.33,2.91.99.7.65,1.23,1.65,1.57,3.01l-2.67.77c-.09-.39-.18-.68-.29-.86-.17-.3-.38-.53-.62-.69-.24-.17-.52-.25-.82-.25-.69,0-1.21.37-1.58,1.09-.27.53-.41,1.38-.41,2.53,0,1.42.17,2.4.5,2.92.33.53.78.79,1.38.79s1.01-.21,1.3-.64c.3-.43.51-1.04.65-1.86"/>
  <path class="st1" d="M230.94,272.85h-.28c-3.27,0-5.68-.79-7.26-2.35-1.26,5.37-6.98,8.96-13.56,8.96-8.06,0-14.44-5.85-14.44-13.58v-4.78h5.64v4.26c0,5.34,3.19,8.93,8.92,8.93,4.36,0,8.52-2.72,8.52-6.42,0-2.12-1.82-3.51-3.76-3.51-.32,0-.64.04-.97.13v-4.86s.81-.05,2.46-.05c4.07,0,7.09,1.84,9.04,5.5.97,1.84,2.38,2.44,4.79,2.44h.89v5.33h0ZM209.16,287.75h-5.04v-4.58h5.04v4.58ZM216.74,287.75h-5.01v-4.58h5.01v4.58ZM248.53,272.85h-18.19v-5.33h3.71c1.89,0,2.86-1.28,2.86-3.83v-8.88h5.68v8.68c0,1.48-.24,2.8-.69,4.03h6.62v5.33h.01ZM242.03,279.46h-5.01v-4.62h5.01v4.62ZM277.01,272.85h-30.06v-5.33h6.01c-.52-1.08-.76-2.23-.76-3.47,0-4.82,3.51-7.92,8.55-7.92s8.51,2.95,8.51,7.92c0,1.24-.24,2.4-.73,3.47h3.91l.08-2.03c-.08-5.98-3.27-10.68-9.43-11.32l.48-5.38c4.31.41,9.04,3.11,11.49,6.62,1.98,2.75,2.95,6.09,2.95,10.03,0,2.27-.32,4.75-1.01,7.41M263.89,264c0-1.95-1.17-3.38-3.14-3.38s-3.11,1.43-3.11,3.38,1.3,3.55,3.11,3.55,3.14-1.56,3.14-3.55M307.95,272.85h-26.14v-5.33h14.64c0-5.58-3.06-8.05-10.24-8.05v-4.66c3.55,0,6.05.24,7.55.75,5.57,1.95,8.35,5.9,8.35,11.92h5.85v5.37h-.01ZM293.75,251.78h-5.04v-4.58h5.04v4.58ZM318.6,265.16c0,2.11-.61,3.86-1.78,5.26-1.33,1.63-3.19,2.43-5.57,2.43h-5.33v-5.33h4.16c1.89,0,2.86-1.31,2.86-3.91v-16.41h5.65v17.97h.01ZM328.36,272.85h-5.64v-25.7h5.64v25.7ZM362.11,265.36h-11.17c-3.99,0-5.73,1.27-5.73,4.35,0,2.9,1.89,4.34,5.73,4.34h7.74v5.41h-7.42c-7.29,0-11.49-3.54-11.49-9.75,0-4.51,2.38-7.86,6.7-9.17-.65-1.31-.98-3.38-.98-4.74,0-4.75,3.88-8.6,8.8-8.6,3.39,0,6.21,1.79,7.55,4.85l-4.52,2.08c-.52-1.56-1.53-2.31-3.1-2.31-1.98,0-3.39,1.75-3.39,4.22,0,1.95.78,3.27,2.27,3.94h9.03v5.37h-.02ZM376.72,269.18c0,3.66-.93,6.29-2.82,7.92-1.74,1.56-4.56,2.31-8.43,2.31v-4.49c3.71,0,5.57-1.76,5.57-5.27v-14.85h5.69v14.38h-.01ZM406.65,272.85h-26.14v-5.33h14.64c0-5.58-3.06-8.05-10.24-8.05v-4.66c3.55,0,6.05.24,7.55.75,5.57,1.95,8.35,5.9,8.35,11.92h5.85v5.37h-.01ZM417.3,265.16c0,2.11-.61,3.86-1.78,5.26-1.33,1.63-3.19,2.43-5.57,2.43h-5.33v-5.33h4.16c1.89,0,2.86-1.31,2.86-3.91v-16.41h5.65v17.97h.01ZM427.06,272.85h-5.65v-25.7h5.65v25.7Z"/>
  <path class="st0" d="M22.18,310.01c0,1.9-.6,3.39-1.78,4.49-1.17,1.07-2.7,1.61-4.6,1.61s-3.38-.56-4.5-1.67c-1.11-1.1-1.66-2.58-1.66-4.44,0-.92.13-1.76.43-2.51h-1.74c-2.13,0-3.19,1.38-3.19,4.1v8.91H1.38v-9.5c0-2.32.68-4.13,2.01-5.39,1.23-1.18,2.81-1.78,4.77-1.78h7.77c1.88,0,3.4.57,4.52,1.7,1.14,1.13,1.72,2.61,1.72,4.47M18.41,309.89c0-.83-.18-1.53-.6-2.07-.46-.62-1.08-.92-1.91-.92s-1.47.33-1.93.97c-.41.57-.6,1.29-.6,2.13s.18,1.51.54,2.07c.43.68,1.03.99,1.79.99h.27c1.61,0,2.43-1.04,2.43-3.18M27.36,316.01h-3.35v-3.58h3.35v3.58ZM50.44,310.01c0,1.9-.6,3.39-1.77,4.49-1.17,1.07-2.7,1.61-4.61,1.61s-3.37-.56-4.49-1.67c-1.12-1.1-1.66-2.58-1.66-4.44,0-.92.14-1.76.44-2.51h-1.74c-2.13,0-3.19,1.38-3.19,4.1v8.91h-3.77v-9.5c0-2.32.69-4.13,2.02-5.39,1.23-1.18,2.81-1.78,4.77-1.78h7.77c1.87,0,3.4.57,4.52,1.7,1.14,1.13,1.71,2.61,1.71,4.47M46.68,309.89c0-.83-.19-1.53-.6-2.07-.46-.62-1.09-.92-1.9-.92-.85,0-1.48.33-1.94.97-.41.57-.6,1.29-.6,2.13s.19,1.51.55,2.07c.44.68,1.03.99,1.8.99h.27c1.62,0,2.43-1.04,2.43-3.18M55.62,316.01h-3.35v-3.58h3.35v3.58ZM72.43,316.03h-13.7v-3.61h9.9c0-3.77-2.08-5.44-6.93-5.44v-3.15c2.4,0,4.09.17,5.1.51,3.7,1.29,5.63,3.99,5.63,8.06v3.63h0ZM66.8,301.79h-3.41v-3.09h3.41v3.09ZM105,311.59c0,2.8-1.66,4.44-4.61,4.44h-9.87c-6.02,0-9.02-2.5-9.02-7.53v-4.69h3.76v4.69c0,1.58.51,2.69,1.53,3.25.79.45,2.04.67,3.82.67h7.03c1.09,0,1.83-.08,2.24-.26.9-.38,1.36-1.22,1.36-2.48v-5.85h3.76v7.76ZM92.57,303.83h-3.41v-3.12h3.41v3.12ZM97.72,303.83h-3.41v-3.12h3.41v3.12ZM111.87,316.03h-3.82v-17.38h3.82v17.38ZM122.38,313.55c0,2.48-.63,4.26-1.91,5.36-1.17,1.05-3.08,1.56-5.7,1.56v-3.04c2.51,0,3.77-1.19,3.77-3.56v-10.05h3.84v9.72h0ZM133.64,316.03h-3.6c-2.92,0-4.61-1.67-4.61-4.44v-12.93h3.82v10.97c0,1.83.46,2.79,3.27,2.79h1.12v3.61ZM138.93,316.03h-5.84v-3.61h5.84v3.61ZM144.32,316.03h-5.84v-3.61h5.84v3.61ZM149.72,316.03h-5.84v-3.61h5.84v3.61ZM155.12,316.03h-5.84v-3.61h5.84v3.61ZM172.56,316.03h-2.2c-2.65,0-4.91-.33-6.81-.99-1.91.67-4.18.99-6.81.99h-2.49v-3.61h2.49c1.2,0,1.93-.08,2.23-.22-1.17-1.31-1.77-2.8-1.77-4.42,0-.68.1-1.37.32-2.05.88-2.61,3.17-4.25,6.03-4.25s5.18,1.64,6.02,4.25c.22.68.33,1.37.33,2.05,0,1.61-.6,3.1-1.77,4.42.32.14,1.06.22,2.23.22h2.2v3.61ZM162.66,299.14h-3.38v-3.09h3.38v3.09ZM164.88,310.63c1.06-.75,1.58-1.78,1.58-3.1,0-1.69-1.08-3.09-2.91-3.09-.9,0-1.61.32-2.18.94-.46.6-.7,1.32-.7,2.15,0,1.32.51,2.35,1.57,3.1.44.32.88.59,1.31.8.44-.21.87-.48,1.33-.8M167.81,299.14h-3.38v-3.09h3.38v3.09ZM177.58,316.03h-5.84v-3.61h5.84v3.61ZM182.97,316.03h-5.84v-3.61h5.84v3.61ZM205.51,316.03h-7.04c-1.57,0-2.99-.62-4.22-1.88-.66.54-1.5.99-2.56,1.34-1.15.35-2.26.54-3.38.54h-5.99v-3.61h5.94c1.33,0,2.53-.29,3.54-.91-.41-.57-1.11-1.13-2.07-1.73-1.15-.7-2.26-1.16-3.32-1.34v-3.1c2.47-1.45,5.01-2.17,7.55-2.17,3.03,0,5.84,1,8.43,2.96-.3.74-.99,1.7-1.99,2.86-1.12,1.27-2.15,2.18-3.14,2.77.49.45,1.18.67,2.05.67h6.21v3.61h0ZM197.67,307.12c-1.18-.59-2.32-.89-3.44-.89s-2.17.25-3.24.75c.81.36,1.47.74,1.96,1.08.48.35,1.07.89,1.69,1.61.54-.24,1.14-.68,1.77-1.24.57-.48,1-.92,1.26-1.32M212.6,310.84c0,1.43-.41,2.61-1.2,3.56-.9,1.1-2.15,1.64-3.76,1.64h-3.6v-3.61h2.8c1.29,0,1.94-.89,1.94-2.64v-11.1h3.81v12.15h0ZM219.47,316.03h-3.82v-17.38h3.82v17.38ZM242.16,309.54c0,1.97-.6,3.53-1.8,4.72s-2.81,1.78-4.8,1.78-3.62-.59-4.85-1.75c-1.2-1.16-1.8-2.75-1.8-4.71s.6-3.56,1.78-4.72c1.17-1.16,2.75-1.75,4.74-1.75s3.65.57,4.88,1.73c1.23,1.13,1.86,2.69,1.86,4.71M234.59,301.01h-3.38v-3.09h3.38v3.09ZM238.51,309.68c0-2.47-1-3.71-3.05-3.71s-2.97,1.24-2.97,3.71c0,.99.24,1.84.74,2.46.51.69,1.27,1.02,2.23,1.02,1.02,0,1.77-.33,2.32-1.02.5-.62.74-1.46.74-2.46M239.74,301.01h-3.38v-3.09h3.38v3.09ZM252.33,313.55c0,2.48-.63,4.26-1.9,5.36-1.18,1.05-3.08,1.56-5.71,1.56v-3.04c2.51,0,3.76-1.19,3.76-3.56v-10.05h3.85v9.72h0ZM259.2,316.03h-3.82v-17.38h3.82v17.38ZM276.13,316.03h-13.7v-3.61h9.88c0-3.77-2.07-5.44-6.92-5.44v-3.15c2.4,0,4.09.17,5.09.51,3.71,1.29,5.65,3.99,5.65,8.06v3.63h0ZM283.29,321.39h-4.91v-1.37h1.09c-.08-.27-.14-.51-.14-.72,0-1.21.87-2.16,2.1-2.16.85,0,1.47.44,1.83,1.27l-1.23.57c-.14-.36-.35-.54-.63-.54-.41,0-.63.27-.63.81,0,.4.12.67.36.75h2.16v1.39h0ZM283,316.03h-3.82v-17.38h3.82v17.38ZM298.39,315.5c0,3.32-2.07,4.99-6.24,4.99h-.39v-3.02h.24c1.53,0,3.03-1.05,3.03-2.51-.52.84-1.42,1.25-2.7,1.25-3.52,0-6.13-2.65-6.13-6.25s2.56-6.17,6.13-6.17,6.05,2.67,6.05,6.22v5.49h.01ZM294.58,310.01c0-1.64-.96-2.8-2.32-2.8s-2.23,1.13-2.23,2.72.87,2.77,2.37,2.77c1.36,0,2.18-1.04,2.18-2.69M330.98,311.59c0,2.8-1.66,4.44-4.61,4.44h-9.87c-6.02,0-9.03-2.5-9.03-7.53v-4.69h3.77v4.69c0,1.58.51,2.69,1.53,3.25.78.45,2.04.67,3.8.67h7.04c1.09,0,1.83-.08,2.23-.26.91-.38,1.36-1.22,1.36-2.48v-5.85h3.77v7.76h.01ZM318.55,303.83h-3.41v-3.12h3.41v3.12ZM323.7,303.83h-3.41v-3.12h3.41v3.12ZM347.76,311.62c0,1.31-.43,2.37-1.33,3.2-.9.81-2.02,1.22-3.36,1.22h-9.05v-3.61h4.06l-3.44-11.93h4.04l3.38,11.93c1.27-.02,1.93-.94,1.93-2.75v-10.99h3.76v12.93h0ZM362.78,315.5c0,3.32-2.07,4.99-6.24,4.99h-.38v-3.02h.24c1.53,0,3.03-1.05,3.03-2.51-.51.84-1.41,1.25-2.7,1.25-3.52,0-6.14-2.65-6.14-6.25s2.56-6.17,6.14-6.17,6.05,2.67,6.05,6.22v5.49h0ZM358.97,310.01c0-1.64-.95-2.8-2.32-2.8s-2.23,1.13-2.23,2.72.87,2.77,2.37,2.77c1.36,0,2.17-1.04,2.17-2.69M374.07,316.03h-3.61c-2.91,0-4.6-1.67-4.6-4.44v-12.93h3.82v10.97c0,1.83.46,2.79,3.27,2.79h1.12v3.61ZM391.41,316.03h-2.21c-2.64,0-4.91-.33-6.81-.99-1.9.67-4.16.99-6.81.99h-2.48v-3.61h2.48c1.2,0,1.93-.08,2.23-.22-1.17-1.31-1.77-2.8-1.77-4.42,0-.68.11-1.37.33-2.05.87-2.61,3.16-4.25,6.02-4.25s5.18,1.64,6.02,4.25c.22.68.33,1.37.33,2.05,0,1.61-.6,3.1-1.77,4.42.33.14,1.07.22,2.23.22h2.21v3.61ZM381.51,299.14h-3.38v-3.09h3.38v3.09ZM383.72,310.63c1.07-.75,1.59-1.78,1.59-3.1,0-1.69-1.09-3.09-2.92-3.09-.9,0-1.6.32-2.18.94-.46.6-.7,1.32-.7,2.15,0,1.32.52,2.35,1.59,3.1.43.32.87.59,1.3.8.44-.21.87-.48,1.33-.8M386.66,299.14h-3.38v-3.09h3.38v3.09ZM409.17,316.03h-4.36c-1.12,1.54-2.83,2.32-5.09,2.32s-4.04-.78-5.18-2.32h-4.18v-3.61h3.05c0-3.88,2.23-6.3,6.19-6.3s6.38,2.35,6.38,6.3h3.19v3.61h0ZM402.2,312.35c0-2.13-.81-3.21-2.43-3.21h-.27c-1.39,0-2.32,1.3-2.32,3.04s.93,3.1,2.54,3.1,2.47-1.13,2.47-2.94M420.63,316.03h-12.37v-3.61h2.58c1.29,0,1.94-.86,1.94-2.58v-11.16h3.84v11.02c0,1-.17,1.89-.46,2.72h4.47v3.61ZM428.04,310.84c0,1.43-.41,2.61-1.2,3.56-.9,1.1-2.16,1.64-3.76,1.64h-3.61v-3.61h2.81c1.27,0,1.93-.89,1.93-2.64v-11.1h3.82v12.15h.01Z"/>
  <path class="st1" d="M321.22,13.87v119.42h9.32v-13.95h6.82v13.95h10.35V13.87M323.72,20.99h21.58v2.2h-21.58v-2.2ZM323.72,30.83h21.58v2.21h-21.58v-2.21ZM323.72,40.67h21.58v2.42h-21.58v-2.42ZM323.72,50.8h21.58v2.14h-21.58v-2.14ZM323.72,60.62h21.58v2.2h-21.58v-2.2ZM323.72,70.46h21.58v2.43h-21.58v-2.43ZM323.72,80.3h21.58v2.43h-21.58v-2.43ZM323.72,90.43h21.58v2.13h-21.58v-2.13ZM323.72,100.27h21.58v2.13h-21.58v-2.13Z"/>
  <path class="st0" d="M108.44,230.32v-2.65h5.04v5.42c-.97.79-1.82,1.33-2.56,1.62s-1.62.43-2.65.43c-1.25,0-2.27-.25-3.06-.77-.79-.51-1.4-1.28-1.84-2.29-.44-1.02-.66-2.19-.66-3.51,0-1.39.24-2.6.72-3.62.47-1.03,1.17-1.81,2.09-2.34.72-.4,1.68-.61,2.9-.61s2.04.13,2.62.38,1.05.65,1.44,1.19c.38.53.67,1.21.86,2.03l-3.15.68c-.13-.48-.35-.85-.66-1.1-.31-.25-.71-.38-1.19-.38-.71,0-1.28.3-1.71.89-.42.6-.64,1.55-.64,2.84,0,1.38.22,2.37.65,2.96.43.59,1.03.88,1.8.88.37,0,.72-.06,1.04-.19.33-.13.72-.34,1.14-.65v-1.2h-2.18ZM115.01,228.59c0-2.08.48-3.69,1.44-4.85.97-1.16,2.3-1.73,4.02-1.73s3.11.56,4.07,1.7c.94,1.14,1.42,2.73,1.42,4.77,0,1.49-.2,2.71-.62,3.66-.41.96-1.02,1.69-1.81,2.22-.78.53-1.76.79-2.94.79s-2.17-.22-2.96-.69c-.78-.45-1.41-1.18-1.9-2.16-.48-.99-.73-2.22-.73-3.71M118.28,228.6c0,1.27.2,2.2.6,2.76s.93.84,1.61.84,1.25-.27,1.63-.82.57-1.54.57-2.96c0-1.2-.19-2.08-.6-2.63-.4-.55-.95-.84-1.63-.84s-1.19.28-1.59.85c-.4.56-.6,1.49-.6,2.79M127.72,222.22h3.27v9.58h5.1v3.13h-8.37v-12.72h0ZM137.62,222.22h4.85c.96,0,1.73.15,2.32.46.59.32,1.07.76,1.46,1.35.39.58.66,1.26.84,2.04.17.78.26,1.6.26,2.46,0,1.36-.12,2.41-.39,3.17-.25.74-.61,1.37-1.07,1.88-.45.51-.95.85-1.47,1.02-.71.23-1.36.35-1.94.35h-4.85v-12.72h0ZM140.88,225.1v6.95h.8c.68,0,1.16-.09,1.45-.27.29-.18.51-.5.68-.96s.25-1.19.25-2.2c0-1.35-.18-2.27-.55-2.77-.37-.49-.97-.74-1.82-.74h-.81,0ZM149.05,222.22h8.76v2.71h-5.48v2.02h5.08v2.59h-5.08v2.51h5.63v2.88h-8.91v-12.72h0ZM159.74,222.22h3.05l3.98,7.03v-7.03h3.08v12.72h-3.08l-3.96-6.99v6.99h-3.08v-12.72h.01ZM176.36,230.73l3.11-.24c.07.61.2,1.07.41,1.39.33.51.81.77,1.44.77.46,0,.82-.13,1.07-.4.25-.26.38-.57.38-.92,0-.33-.12-.62-.36-.88-.24-.26-.79-.51-1.67-.74-1.43-.39-2.45-.9-3.06-1.54-.62-.64-.92-1.46-.92-2.45,0-.66.16-1.28.46-1.86.32-.58.79-1.03,1.42-1.37.64-.33,1.5-.5,2.6-.5,1.36,0,2.39.3,3.09.9.71.61,1.13,1.56,1.27,2.89l-3.08.22c-.08-.57-.25-.99-.51-1.25s-.63-.39-1.08-.39c-.39,0-.67.1-.86.29-.19.19-.29.43-.29.71,0,.2.08.39.24.54.15.17.51.33,1.09.48,1.43.36,2.46.74,3.07,1.12.61.38,1.06.85,1.34,1.41s.43,1.19.43,1.89c0,.81-.19,1.57-.57,2.25-.37.68-.9,1.21-1.57,1.56-.68.36-1.53.53-2.54.53-1.8,0-3.04-.42-3.74-1.25-.69-.83-1.08-1.89-1.18-3.17M187.61,222.22h3.27v4.44h3.56v-4.44h3.29v12.72h-3.29v-5.14h-3.56v5.14h-3.27v-12.72ZM200.03,222.22h3.28v12.72h-3.28v-12.72ZM205.64,222.22h8.75v2.71h-5.48v2.02h5.09v2.59h-5.09v2.51h5.64v2.88h-8.91v-12.72h0ZM216.3,222.22h3.26v9.58h5.1v3.13h-8.36v-12.72h0ZM226.19,222.22h4.85c.96,0,1.73.15,2.32.46.59.32,1.08.76,1.46,1.35.39.58.67,1.26.84,2.04s.25,1.6.25,2.46c0,1.36-.12,2.41-.38,3.17-.26.74-.62,1.37-1.07,1.88-.46.51-.95.85-1.47,1.02-.72.23-1.37.35-1.95.35h-4.85v-12.72h0ZM229.46,225.1v6.95h.8c.68,0,1.17-.09,1.46-.27.28-.18.51-.5.68-.96s.24-1.19.24-2.2c0-1.35-.18-2.27-.55-2.77-.37-.49-.97-.74-1.82-.74h-.81Z"/>
  <path class="st1" d="M157.95,183.73h-.43c-4.95,0-8.62-1.21-11.01-3.57-1.89,8.17-10.58,13.6-20.56,13.6-12.23,0-21.91-8.88-21.91-20.6v-7.25h8.57v6.46c0,8.1,4.83,13.53,13.52,13.53,6.6,0,12.91-4.11,12.91-9.72,0-3.21-2.75-5.33-5.69-5.33-.49,0-.99.07-1.47.18v-7.38c0-.06,1.22-.06,3.73-.06,6.18,0,10.77,2.78,13.7,8.34,1.47,2.78,3.61,3.68,7.28,3.68h1.35v8.12ZM124.91,206.33h-7.65v-6.95h7.65v6.95ZM136.41,206.33h-7.59v-6.95h7.59v6.95ZM184.64,183.73h-27.59v-8.1h5.62c2.88,0,4.35-1.94,4.35-5.8v-13.47h8.62v13.17c0,2.23-.36,4.23-1.03,6.1h10.03v8.1ZM174.79,193.76h-7.59v-7.01h7.59v7.01ZM227.84,183.73h-45.59v-8.1h9.12c-.8-1.62-1.17-3.38-1.17-5.26,0-7.3,5.32-12.02,12.97-12.02s12.91,4.47,12.91,12.02c0,1.88-.37,3.64-1.1,5.26h5.93l.12-3.08c-.12-9.06-4.95-16.19-14.31-17.16l.74-8.17c6.54.61,13.7,4.72,17.43,10.03,3,4.18,4.47,9.25,4.47,15.23,0,3.45-.49,7.19-1.53,11.24M207.95,170.32c0-2.96-1.77-5.13-4.77-5.13s-4.71,2.17-4.71,5.13,1.96,5.38,4.71,5.38,4.77-2.36,4.77-5.38M274.77,183.73h-39.64v-8.1h22.21c0-8.46-4.65-12.21-15.54-12.21v-7.06c5.38,0,9.18.36,11.44,1.14,8.44,2.97,12.66,8.95,12.66,18.07h8.87v8.16h0ZM253.24,151.76h-7.65v-6.95h7.65v6.95ZM290.93,172.06c0,3.21-.92,5.87-2.69,7.98-2.02,2.47-4.83,3.68-8.45,3.68h-8.08v-8.1h6.3c2.88,0,4.35-1.99,4.35-5.92v-24.9h8.56v27.25h.01ZM305.74,183.73h-8.56v-38.98h8.56v38.98Z"/>
  <path class="st0" d="M164.09,77.66h-30.99c-11.08,0-15.89,4.63-15.89,15.78,0,10.56,5.26,15.77,15.89,15.77h21.48v19.69h-20.58c-20.26,0-31.9-12.88-31.9-35.46,0-16.36,6.61-28.53,18.58-33.31-1.8-4.76-2.69-12.3-2.69-17.21,0-17.24,10.73-31.28,24.39-31.28,9.4,0,17.23,6.52,20.92,17.66l-12.54,7.53c-1.45-5.65-4.25-8.39-8.62-8.39-5.48,0-9.39,6.36-9.39,15.34,0,7.09,2.13,11.87,6.26,14.33h25.07"/>
  <path class="st0" d="M204.59,91.55c0,13.33-2.58,22.87-7.84,28.82-4.81,5.64-12.64,8.4-23.38,8.4v-16.36c10.29,0,15.43-6.37,15.43-19.11v-54h15.78"/>
  <path class="st0" d="M287.62,106.37h-72.51v-19.4h40.62c0-20.27-8.5-29.23-28.42-29.23v-16.94c9.85,0,16.79.87,20.92,2.75,15.44,7.09,23.16,21.43,23.16,43.29h16.23"/>
  <path class="st0" d="M317.17,78.43c0,7.68-1.68,14.05-4.93,19.12-3.69,5.94-8.83,8.82-15.43,8.82h-14.78v-19.4h11.53c5.26,0,7.94-4.78,7.94-14.19V13.14h15.67"/>
  <path class="st1" d="M233.99,0h153.27v134.25s1.68,65.45-118.58,104.6v-9.51s109.07-30.2,111.32-105.16l.55-115.23-139.27-.56"/>
</svg>